# xmcd CD database file
#
# Track frame offsets:
#	150
#	8457
#	58999
#	66345
#	89067
#	115033
#	166191
#	194744
#
# Disc length: 2773 seconds
#
# Revision: 0
# Processed by: cddbd v1.5.2PL0 Copyright (c) Steve Scherf et al.
# Submitted via: CDex 1.70beta3
#
DISCID=6c0ad308
DTITLE=Sugawa Takashi Trio - Outgrowing
DYEAR=2017
DGENRE=Jazz
TTITLE0=First Meeting
TTITLE1=Outgrowing
TTITLE2=Violoncello
TTITLE3=Short Story Long
TTITLE4=Motion
TTITLE5=Izayoi 「十六夜」
TTITLE6=Ancient Blue
TTITLE7=Uncompleted Waltz
EXTD=YEAR: 2017
EXTT0=
EXTT1=
EXTT2=
EXTT3=
EXTT4=
EXTT5=
EXTT6=
EXTT7=
PLAYORDER=
